<?xml version="1.0" encoding="UTF-8" standalone="no"?>
<!-- Creator: fig2dev Version 3.2.9 -->
<!-- CreationDate: 2024-08-20 13:39:00 -->
<!-- Magnification: 3 -->
<svg	xmlns="http://www.w3.org/2000/svg"
	xmlns:xlink="http://www.w3.org/1999/xlink"
	width="1409pt" height="1409pt"
	viewBox="-12 -12 7824 7824">
<g fill="none">
<!-- Line -->
<rect x="0" y="0" width="7800" height="7800" fill="#ffd600"
	stroke="#ffd600" stroke-width="8px"/>
<!-- Line -->
<polyline points=" 3561,4779 3560,4779 3557,4776 3548,4770 3534,4761 3516,4749 3495,4735 3473,4721
 3452,4707 3432,4695 3414,4684 3397,4674 3381,4665 3366,4657 3350,4649 3339,4644
 3327,4639 3315,4634 3301,4629 3287,4624 3271,4619 3255,4615 3236,4611 3217,4607
 3196,4604 3173,4601 3150,4599 3124,4597 3098,4596 3071,4596 3042,4596 3012,4596
 2980,4598 2947,4600 2913,4603 2887,4605 2860,4608 2831,4611 2802,4615 2771,4619
 2739,4623 2706,4627 2672,4632 2638,4637 2603,4643 2567,4648 2531,4654 2495,4660
 2460,4666 2425,4672 2390,4678 2357,4685 2325,4691 2294,4697 2265,4702 2237,4708
 2211,4713 2187,4719 2164,4723 2144,4728 2126,4733 2109,4737 2095,4741 2086,4743
 2078,4746 2070,4748 2064,4750 2058,4752 2054,4755 2050,4757 2047,4758 2044,4760
 2042,4762 2042,4764 2041,4765 2042,4767 2043,4769 2045,4770 2047,4771 2050,4773
 2054,4774 2058,4776 2063,4777 2068,4778 2073,4779 2079,4781 2085,4782 2092,4783
 2099,4784 2106,4785 2113,4786 2120,4788 2128,4789 2135,4790 2143,4791 2150,4792
 2158,4793 2165,4795 2172,4796 2180,4797 2187,4799 2194,4800 2200,4802 2212,4805
 2224,4808 2235,4812 2245,4815 2255,4820 2265,4824 2274,4829 2282,4834 2290,4839
 2297,4845 2303,4851 2308,4857 2312,4863 2315,4869 2318,4875 2319,4881 2319,4887
 2318,4893 2317,4899 2314,4905 2310,4910 2306,4916 2297,4925 2285,4934 2272,4943
 2257,4953 2241,4962 2224,4972 2207,4981 2191,4990 2177,4999 2164,5007 2155,5014
 2148,5020 2144,5025 2144,5030 2147,5034 2154,5038 2164,5042 2177,5045 2193,5049
 2211,5052 2230,5056 2250,5060 2270,5065 2289,5070 2306,5076 2322,5083 2335,5090
 2346,5099 2355,5110 2362,5123 2366,5138 2367,5154 2367,5171 2366,5188 2364,5205
 2362,5221 2360,5236 2359,5248 2360,5259 2363,5267 2366,5271 2371,5275 2378,5277
 2385,5278 2395,5278 2406,5276 2419,5273 2433,5269 2448,5264 2464,5258 2481,5251
 2499,5243 2517,5235 2535,5225 2554,5216 2573,5206 2589,5197 2605,5188 2622,5178
 2640,5168 2659,5158 2679,5147 2699,5136 2720,5124 2742,5113 2764,5101 2786,5090
 2808,5078 2830,5067 2852,5057 2874,5047 2896,5038 2916,5029 2937,5021 2957,5014
 2977,5008 3000,5001 3022,4995 3045,4990 3068,4985 3092,4980 3116,4976 3140,4973
 3164,4970 3188,4967 3211,4965 3234,4963 3255,4961 3276,4960 3295,4959 3312,4958
 3329,4957 3344,4955 3358,4954 3378,4952 3395,4950 3412,4947 3428,4944 3444,4940
 3460,4935 3476,4929 3490,4924 3501,4920 3508,4917 3512,4916" fill="#008f00"
	stroke="#000000" stroke-width="45px" stroke-linejoin="bevel"/>
<!-- Line -->
<polyline points=" 4182,4779 4183,4779 4186,4776 4195,4770 4208,4761 4227,4749 4248,4735 4269,4721
 4290,4707 4310,4695 4328,4684 4345,4674 4361,4665 4377,4657 4392,4649 4404,4644
 4415,4639 4428,4634 4441,4629 4455,4624 4471,4619 4488,4615 4506,4611 4526,4607
 4547,4604 4569,4601 4593,4599 4618,4597 4645,4596 4672,4596 4701,4596 4731,4596
 4762,4598 4795,4600 4830,4603 4856,4605 4883,4608 4911,4611 4941,4615 4972,4619
 5004,4623 5036,4627 5070,4632 5105,4637 5140,4643 5176,4648 5211,4654 5247,4660
 5283,4666 5318,4672 5352,4678 5385,4685 5418,4691 5448,4697 5478,4702 5506,4708
 5532,4713 5556,4719 5578,4723 5598,4728 5617,4733 5633,4737 5648,4741 5657,4743
 5665,4746 5672,4748 5678,4750 5684,4752 5689,4755 5693,4757 5696,4758 5698,4760
 5700,4762 5701,4764 5701,4765 5701,4767 5699,4769 5698,4770 5695,4771 5692,4773
 5689,4774 5685,4776 5680,4777 5675,4778 5669,4779 5663,4781 5657,4782 5651,4783
 5644,4784 5637,4785 5630,4786 5622,4788 5615,4789 5607,4790 5600,4791 5592,4792
 5585,4793 5578,4795 5570,4796 5563,4797 5556,4799 5549,4800 5542,4802 5530,4805
 5519,4808 5508,4812 5497,4815 5487,4820 5478,4824 5469,4829 5460,4834 5453,4839
 5446,4845 5440,4851 5434,4857 5430,4863 5427,4869 5425,4875 5423,4881 5423,4887
 5424,4893 5426,4899 5428,4905 5432,4910 5436,4916 5445,4925 5457,4934 5470,4943
 5485,4953 5501,4962 5518,4972 5535,4981 5551,4990 5565,4999 5578,5007 5587,5014
 5594,5020 5598,5025 5598,5030 5595,5034 5588,5038 5578,5042 5565,5045 5549,5049
 5531,5052 5512,5056 5492,5060 5472,5065 5453,5070 5436,5076 5420,5083 5407,5090
 5396,5099 5387,5110 5380,5123 5377,5138 5375,5154 5375,5171 5376,5188 5379,5205
 5381,5221 5383,5236 5383,5248 5383,5259 5380,5267 5377,5271 5372,5275 5365,5277
 5357,5278 5348,5278 5337,5276 5324,5273 5310,5269 5295,5264 5279,5258 5262,5251
 5244,5243 5226,5235 5208,5225 5189,5216 5170,5206 5154,5197 5137,5188 5120,5178
 5102,5168 5084,5158 5064,5147 5044,5136 5023,5124 5001,5113 4979,5101 4957,5090
 4934,5078 4912,5067 4890,5057 4868,5047 4847,5038 4826,5029 4805,5021 4785,5014
 4765,5008 4743,5001 4720,4995 4697,4990 4674,4985 4650,4980 4626,4976 4602,4973
 4578,4970 4554,4967 4531,4965 4508,4963 4487,4961 4466,4960 4447,4959 4430,4958
 4413,4957 4398,4955 4384,4954 4364,4952 4347,4950 4330,4947 4314,4944 4298,4940
 4282,4935 4266,4929 4252,4924 4241,4920 4234,4917 4230,4916" fill="#008f00"
	stroke="#000000" stroke-width="45px" stroke-linejoin="bevel"/>
<!-- Ellipse -->
<ellipse transform="translate(2976,4365) rotate(-45)" rx="413" ry="710" fill="#008f00"
	stroke="#000000" stroke-width="45px"/>
<!-- Ellipse -->
<ellipse transform="translate(4766,4365) rotate(-315)" rx="413" ry="710" fill="#008f00"
	stroke="#000000" stroke-width="45px"/>
<!-- Ellipse -->
<ellipse cx="3865" cy="4001" rx="997" ry="1235" fill="#008f00"
	stroke="#000000" stroke-width="45px"/>
<!-- Ellipse -->
<ellipse cx="3162" cy="3131" rx="418" ry="394" fill="#008f00"
	stroke="#000000" stroke-width="45px"/>
<!-- Ellipse -->
<ellipse cx="4516" cy="3124" rx="418" ry="394" fill="#008f00"
	stroke="#000000" stroke-width="45px"/>
<!-- Arc -->
<path d="M 3405,3772 A 837 837 0 0 0 4327 3772"
	stroke="#000000" stroke-width="45px"/>
<!-- Line -->
<polyline points=" 4281,3710 4394,3829"
	stroke="#000000" stroke-width="45px"/>
<!-- Line -->
<polyline points=" 3453,3710 3368,3825"
	stroke="#000000" stroke-width="45px"/>
<!-- Ellipse -->
<ellipse cx="3135" cy="3119" rx="189" ry="178" fill="#ffffff"
	stroke="#000000" stroke-width="15px"/>
<!-- Ellipse -->
<ellipse cx="4490" cy="3111" rx="189" ry="178" fill="#ffffff"
	stroke="#000000" stroke-width="15px"/>
<!-- Ellipse -->
<ellipse cx="3135" cy="3122" rx="80" ry="75" fill="#000000"
	stroke="#000000" stroke-width="15px"/>
<!-- Ellipse -->
<ellipse cx="4490" cy="3114" rx="80" ry="75" fill="#000000"
	stroke="#000000" stroke-width="15px"/>
</g>
</svg>
