<?xml version="1.0" encoding="UTF-8" standalone="no"?>
<!-- Creator: fig2dev Version 3.2.9 -->
<!-- CreationDate: 2024-10-26 22:07:38 -->
<!-- Magnification: 1 -->
<svg	xmlns="http://www.w3.org/2000/svg"
	xmlns:xlink="http://www.w3.org/1999/xlink"
	width="466pt" height="466pt"
	viewBox="17 67 7760 7758">
<g fill="none">
<!-- Circle -->
<circle cx="3897" cy="3946" r="3872" fill="#ffd600"
	stroke="#ffd600" stroke-width="8px"/>
<!-- Line -->
<polyline points=" 3509,5132 3506,5130 3499,5125 3488,5116 3471,5105 3450,5089 3426,5072 3400,5054
 3374,5036 3348,5019 3324,5002 3301,4987 3280,4974 3260,4961 3240,4950 3222,4939
 3203,4929 3184,4920 3171,4913 3157,4906 3143,4900 3128,4894 3112,4888 3095,4881
 3078,4876 3059,4870 3039,4864 3018,4859 2995,4854 2971,4850 2946,4846 2919,4842
 2892,4839 2863,4837 2833,4835 2801,4833 2769,4833 2736,4832 2701,4833 2665,4834
 2628,4836 2590,4838 2550,4841 2509,4845 2476,4848 2442,4851 2407,4855 2370,4860
 2332,4865 2293,4870 2253,4876 2211,4881 2169,4888 2126,4894 2081,4901 2037,4909
 1992,4916 1946,4924 1901,4932 1855,4940 1810,4948 1765,4956 1721,4964 1678,4973
 1637,4981 1596,4989 1557,4997 1519,5005 1483,5012 1449,5020 1417,5027 1386,5034
 1358,5041 1332,5047 1307,5053 1285,5059 1265,5064 1247,5070 1233,5074 1220,5078
 1209,5082 1199,5085 1191,5089 1183,5092 1177,5095 1172,5098 1169,5101 1166,5104
 1164,5107 1164,5110 1165,5112 1167,5115 1169,5117 1173,5120 1178,5122 1183,5124
 1190,5126 1197,5129 1205,5131 1213,5133 1222,5135 1232,5137 1242,5138 1252,5140
 1263,5142 1274,5144 1286,5146 1297,5148 1309,5150 1320,5152 1332,5154 1343,5156
 1355,5158 1366,5160 1377,5162 1388,5165 1399,5167 1409,5170 1426,5174 1442,5179
 1458,5184 1473,5190 1487,5196 1501,5202 1514,5209 1527,5217 1538,5224 1549,5233
 1559,5241 1567,5250 1574,5259 1580,5268 1585,5277 1589,5286 1591,5295 1592,5304
 1592,5313 1590,5322 1587,5331 1583,5340 1578,5348 1572,5357 1559,5370 1545,5383
 1527,5396 1508,5410 1487,5424 1465,5437 1442,5451 1419,5464 1398,5477 1378,5490
 1360,5501 1345,5512 1334,5521 1326,5530 1322,5538 1322,5545 1325,5550 1332,5555
 1342,5560 1355,5564 1371,5568 1389,5573 1410,5577 1432,5582 1455,5587 1479,5593
 1503,5598 1526,5605 1549,5612 1570,5619 1589,5627 1606,5636 1621,5646 1634,5657
 1645,5671 1654,5686 1660,5703 1664,5721 1667,5741 1667,5761 1666,5782 1665,5804
 1662,5824 1660,5845 1657,5864 1655,5881 1654,5897 1654,5911 1656,5922 1659,5932
 1663,5938 1669,5943 1676,5947 1684,5949 1694,5950 1706,5950 1719,5949 1734,5946
 1750,5942 1767,5936 1786,5930 1806,5922 1826,5913 1847,5904 1869,5893 1891,5882
 1914,5871 1937,5858 1960,5845 1984,5832 2003,5821 2022,5810 2042,5798 2062,5786
 2084,5774 2106,5760 2128,5747 2152,5733 2176,5719 2201,5704 2226,5690 2252,5675
 2278,5660 2305,5646 2331,5632 2358,5618 2384,5604 2411,5591 2437,5578 2462,5566
 2488,5555 2512,5544 2537,5534 2561,5524 2585,5515 2609,5507 2635,5499 2661,5491
 2687,5484 2714,5477 2741,5471 2768,5466 2795,5461 2823,5456 2851,5451 2879,5447
 2907,5444 2934,5441 2961,5438 2988,5435 3013,5433 3038,5431 3062,5429 3084,5428
 3106,5426 3126,5425 3145,5423 3163,5422 3180,5421 3197,5420 3222,5417 3246,5414
 3268,5410 3290,5406 3311,5400 3332,5394 3354,5388 3375,5380 3394,5373 3411,5367
 3423,5362 3430,5359 3434,5357" fill="#008f00"
	stroke="#000000" stroke-width="45px" stroke-linejoin="bevel"/>
<!-- Line -->
<polyline points=" 4468,5132 4471,5130 4478,5125 4489,5116 4506,5105 4527,5089 4551,5072 4577,5054
 4603,5036 4629,5019 4653,5002 4676,4987 4697,4974 4717,4961 4737,4950 4755,4939
 4774,4929 4793,4920 4806,4913 4820,4906 4834,4900 4849,4894 4865,4888 4882,4881
 4899,4876 4918,4870 4938,4864 4959,4859 4982,4854 5006,4850 5031,4846 5058,4842
 5085,4839 5114,4837 5144,4835 5176,4833 5208,4833 5241,4832 5276,4833 5312,4834
 5349,4836 5387,4838 5427,4841 5468,4845 5501,4848 5535,4851 5570,4855 5607,4860
 5645,4865 5684,4870 5724,4876 5766,4881 5808,4888 5851,4894 5896,4901 5940,4909
 5985,4916 6031,4924 6076,4932 6122,4940 6167,4948 6212,4956 6256,4964 6299,4973
 6340,4981 6381,4989 6420,4997 6458,5005 6494,5012 6528,5020 6560,5027 6591,5034
 6619,5041 6645,5047 6670,5053 6692,5059 6712,5064 6731,5070 6744,5074 6757,5078
 6768,5082 6778,5085 6786,5089 6794,5092 6800,5095 6805,5098 6808,5101 6811,5104
 6813,5107 6813,5110 6812,5112 6810,5115 6808,5117 6804,5120 6799,5122 6794,5124
 6787,5126 6780,5129 6772,5131 6764,5133 6755,5135 6745,5137 6735,5138 6725,5140
 6714,5142 6703,5144 6691,5146 6680,5148 6668,5150 6657,5152 6645,5154 6634,5156
 6622,5158 6611,5160 6600,5162 6589,5165 6578,5167 6568,5170 6551,5174 6535,5179
 6519,5184 6504,5190 6490,5196 6476,5202 6463,5209 6450,5217 6439,5224 6428,5233
 6418,5241 6410,5250 6403,5259 6397,5268 6392,5277 6388,5286 6386,5295 6385,5304
 6385,5313 6387,5322 6390,5331 6394,5340 6399,5348 6406,5357 6418,5370 6432,5383
 6450,5396 6469,5410 6490,5424 6512,5437 6535,5451 6558,5464 6579,5477 6599,5490
 6617,5501 6632,5512 6643,5521 6651,5530 6655,5538 6656,5545 6652,5550 6645,5555
 6635,5560 6622,5564 6606,5568 6588,5573 6567,5577 6545,5582 6522,5587 6498,5593
 6474,5598 6451,5605 6428,5612 6407,5619 6388,5627 6371,5636 6356,5646 6343,5657
 6332,5671 6323,5686 6317,5703 6313,5721 6310,5741 6310,5761 6311,5782 6312,5804
 6315,5824 6317,5845 6320,5864 6322,5881 6323,5897 6323,5911 6321,5922 6318,5932
 6314,5938 6308,5943 6301,5947 6293,5949 6283,5950 6271,5950 6258,5949 6243,5946
 6227,5942 6210,5936 6191,5930 6171,5922 6151,5913 6130,5904 6108,5893 6086,5882
 6063,5871 6040,5858 6017,5845 5993,5832 5974,5821 5955,5810 5935,5798 5915,5786
 5893,5774 5871,5760 5849,5747 5825,5733 5801,5719 5776,5704 5751,5690 5725,5675
 5699,5660 5672,5646 5646,5632 5619,5618 5593,5604 5566,5591 5540,5578 5515,5566
 5489,5555 5465,5544 5440,5534 5416,5524 5392,5515 5368,5507 5342,5499 5316,5491
 5290,5484 5263,5477 5236,5471 5209,5466 5182,5461 5154,5456 5126,5451 5098,5447
 5070,5444 5043,5441 5016,5438 4989,5435 4964,5433 4939,5431 4915,5429 4893,5428
 4871,5426 4851,5425 4832,5423 4814,5422 4797,5421 4781,5420 4755,5417 4731,5414
 4709,5410 4687,5406 4666,5400 4645,5394 4623,5388 4602,5380 4583,5373 4566,5367
 4554,5362 4547,5359 4543,5357" fill="#008f00"
	stroke="#000000" stroke-width="45px" stroke-linejoin="bevel"/>
<!-- Ellipse -->
<ellipse transform="translate(2607,4453) rotate(-45)" rx="638" ry="1162" fill="#008f00"
	stroke="#000000" stroke-width="45px"/>
<!-- Ellipse -->
<ellipse transform="translate(5370,4453) rotate(-315)" rx="638" ry="1162" fill="#008f00"
	stroke="#000000" stroke-width="45px"/>
<!-- Ellipse -->
<ellipse cx="3980" cy="3857" rx="1538" ry="2025" fill="#008f00"
	stroke="#000000" stroke-width="45px"/>
<!-- Circle -->
<circle cx="2893" cy="2432" r="645" fill="#008f00"
	stroke="#000000" stroke-width="45px"/>
<!-- Circle -->
<circle cx="4984" cy="2420" r="645" fill="#008f00"
	stroke="#000000" stroke-width="45px"/>
<!-- Arc -->
<path d="M 3268,3482 A 1238 1238 0 0 0 4693 3482"
	stroke="#000000" stroke-width="45px"/>
<!-- Line -->
<polyline points=" 4622,3379 4797,3576"
	stroke="#000000" stroke-width="45px"/>
<!-- Line -->
<polyline points=" 3342,3379 3213,3568"
	stroke="#000000" stroke-width="45px"/>
<!-- Circle -->
<circle cx="2851" cy="2411" r="291" fill="#ffffff"
	stroke="#000000" stroke-width="15px"/>
<!-- Circle -->
<circle cx="4942" cy="2399" r="291" fill="#ffffff"
	stroke="#000000" stroke-width="15px"/>
<!-- Circle -->
<circle cx="2851" cy="2416" r="123" fill="#000000"
	stroke="#000000" stroke-width="15px"/>
<!-- Circle -->
<circle cx="4942" cy="2404" r="123" fill="#000000"
	stroke="#000000" stroke-width="15px"/>
</g>
</svg>
